# xmcd
#
# Track frame offsets: 
#        150
#        18521
#        37419
#        51874
#        72050
#        86422
#        103752
#        123278
#        143405
#        164023
#
# Disc length: 2434 seconds
#
# Revision: 0
# Processed by: cddbd v1.5.2PL0 Copyright (c) Steve Scherf et al.
# Submitted via: ExactAudioCopy v0.95b3
#
DISCID=8609800a
DTITLE=Tyler McCumber Band - Catch Me
DYEAR=2006
DGENRE=Country
TTITLE0=White Trash Farm
TTITLE1=Music Man
TTITLE2=Someone New
TTITLE3=Windmill 
TTITLE4=Hollis, Oklahoma
TTITLE5=Catch Me
TTITLE6=Ghost 
TTITLE7=Belong To Another
TTITLE8=Uncle Sam's Gun
TTITLE9=Lemons
EXTD=
EXTT0=
EXTT1=
EXTT2=
EXTT3=
EXTT4=
EXTT5=
EXTT6=
EXTT7=
EXTT8=
EXTT9=
PLAYORDER=
